# xmcd CD database file
#
# Track frame offsets:
#	150
#	18610
#	32357
#	46092
#	56542
#	68920
#	80172
#	99817
#	116670
#	126282
#	141815
#	159272
#	177015
#	189940
#	201380
#	211082
#	219400
#	228975
#	237560
#	248472
#	260852
#	272450
#	286055
#	298137
#	309532
#	323892
#
# Disc length: 4470 seconds
#
# Revision: 8
# Processed by: cddbd v1.5.2PL0 Copyright (c) Steve Scherf et al.
# Submitted via: CDex 1.70beta2
#
DISCID=7311741a
DTITLE=Johnny Cash - The Man In Black - The International Johnny Cash
DYEAR=2002
DGENRE=Country
TTITLE0=Das Johnny Cash Konzert
TTITLE1=Der Mann hinterm Pflug
TTITLE2=Gitarre Marke Eigenbau
TTITLE3=Ich bleib auf Kurs
TTITLE4=Folsom Prison Blues
TTITLE5=Big river
TTITLE6=Ein Stückchen pro Tag
TTITLE7=Ein Junge namens Susi
TTITLE8=San Quentin
TTITLE9=Ich werd' Gesucht
TTITLE10=Noch 20 Minuten zu geh'n
TTITLE11=A front row seat to hear Ole Johnny sing
TTITLE12=Man in black
TTITLE13=Wer kennt den Weg
TTITLE14=Viel zu spät
TTITLE15=Wo ist zuhause, Mama
TTITLE16=In Virginia
TTITLE17=Kleine Rosemarie
TTITLE18=Johnny Cash
TTITLE19=El Matador
TTITLE20=Fuego d'amor
TTITLE21=Die Colt Ballade
TTITLE22=Wo kommt denn bloß Die Liebe Her
TTITLE23=Mein Weg führt mich zu dir
TTITLE24=Lass deinen Colt zu Haus, Bill
TTITLE25=Der große Treck nach Idaho
EXTD=YEAR: 2002
EXTT0=
EXTT1=
EXTT2=
EXTT3=
EXTT4=
EXTT5=
EXTT6=
EXTT7=
EXTT8=
EXTT9=
EXTT10=
EXTT11=
EXTT12=
EXTT13=
EXTT14=
EXTT15=
EXTT16=
EXTT17=
EXTT18=
EXTT19=
EXTT20=
EXTT21=
EXTT22=
EXTT23=
EXTT24=
EXTT25=
PLAYORDER=
